<svg width="39" height="39" viewBox="0 0 39 39" fill="none" xmlns="http://www.w3.org/2000/svg">
<path d="M39 0H0V39H39V0Z" fill="#61A8DE"/>
<path d="M30.709 8.60905L4.62918 18.7721C3.78445 19.1013 3.83562 20.3135 4.70517 20.5702L11.3323 22.5272L13.8056 30.3751C14.0639 31.1948 15.1028 31.4433 15.7041 30.8293L19.1305 27.3308L25.8534 32.2656C26.6762 32.8695 27.8479 32.4208 28.0568 31.4219L32.5094 10.1338C32.7275 9.09102 31.7016 8.22224 30.709 8.60905ZM27.4392 13.3334L15.3253 24.0457C15.2046 24.1525 15.1277 24.3003 15.1098 24.4605L14.6434 28.6065C14.6281 28.7418 14.4389 28.7596 14.3985 28.6297L12.4797 22.4466C12.3918 22.1635 12.5064 21.8568 12.7582 21.7006L27.0635 12.8283C27.3924 12.6241 27.7293 13.077 27.4392 13.3334Z" fill="white"/>
</svg>
