<svg width="39" height="39" viewBox="0 0 39 39" fill="none" xmlns="http://www.w3.org/2000/svg">
<path d="M38.9999 6.10352e-05H0V39H38.9999V6.10352e-05Z" fill="#7D3DAF"/>
<path d="M31.8339 12.5712L31.8262 12.5404C31.2032 10.0219 28.3945 7.31936 25.8153 6.75712L25.7862 6.75113C21.6143 5.95527 17.3842 5.95527 13.2132 6.75113L13.1833 6.75712C10.6049 7.31936 7.79623 10.0219 7.17238 12.5404L7.16553 12.5712C6.39534 16.0884 6.39534 19.6553 7.16553 23.1725L7.17238 23.2033C7.76962 25.6143 10.3691 28.1927 12.8521 28.9017V31.7131C12.8521 32.7306 14.0921 33.2304 14.7973 32.4961L17.6457 29.5353C18.2635 29.5698 18.8816 29.5891 19.4997 29.5891C21.5998 29.5891 23.7007 29.3906 25.7862 28.9926L25.8153 28.9866C28.3945 28.4244 31.2032 25.7219 31.8262 23.2034L31.8339 23.1725C32.6041 19.6553 32.6041 16.0884 31.8339 12.5712ZM29.5798 22.6624C29.1639 24.3055 27.0313 26.3482 25.3369 26.7256C23.1187 27.1474 20.8829 27.3277 18.6493 27.2659C18.6049 27.2647 18.5622 27.2819 18.5312 27.3137C18.2143 27.6391 16.4515 29.4487 16.4515 29.4487L14.2393 31.719C14.0776 31.8876 13.7934 31.7729 13.7934 31.5402V26.8829C13.7934 26.806 13.7385 26.7406 13.6629 26.7258C13.6625 26.7257 13.6621 26.7256 13.6617 26.7255C11.9672 26.3481 9.83553 24.3054 9.41877 22.6623C8.7256 19.4832 8.7256 16.2603 9.41877 13.0812C9.83553 11.4381 11.9672 9.39537 13.6617 9.01798C17.5357 8.28116 21.4637 8.28116 25.3369 9.01798C27.0322 9.39537 29.1639 11.4381 29.5798 13.0812C30.2737 16.2604 30.2737 19.4832 29.5798 22.6624Z" fill="white"/>
<path d="M23.1856 24.8124C22.9251 24.7333 22.6769 24.6802 22.4463 24.5845C20.0574 23.5933 17.8587 22.3146 16.1172 20.3545C15.1268 19.2399 14.3516 17.9815 13.6964 16.6497C13.3856 16.0181 13.1238 15.3619 12.8569 14.7099C12.6135 14.1153 12.972 13.501 13.3494 13.053C13.7036 12.6326 14.1594 12.3108 14.653 12.0737C15.0383 11.8886 15.4183 11.9953 15.6997 12.3218C16.308 13.0278 16.8667 13.77 17.3192 14.5883C17.5974 15.0917 17.521 15.707 17.0168 16.0496C16.8943 16.1328 16.7826 16.2306 16.6684 16.3246C16.5683 16.407 16.4741 16.4903 16.4055 16.6019C16.28 16.8061 16.274 17.0469 16.3548 17.2689C16.9766 18.9777 18.0247 20.3064 19.7446 21.0221C20.0198 21.1366 20.2962 21.2699 20.6133 21.2329C21.1443 21.1709 21.3162 20.5885 21.6883 20.2842C22.052 19.9868 22.5168 19.9828 22.9085 20.2308C23.3004 20.4788 23.6803 20.745 24.0578 21.014C24.4284 21.2781 24.7975 21.5365 25.1393 21.8375C25.468 22.1271 25.5812 22.5068 25.3961 22.8997C25.0573 23.6193 24.5642 24.2179 23.8529 24.6C23.652 24.7077 23.4121 24.7426 23.1856 24.8124C22.9251 24.7332 23.4121 24.7426 23.1856 24.8124Z" fill="white"/>
<path d="M19.5058 11.2508C22.6306 11.3384 25.1971 13.4121 25.7471 16.5015C25.8408 17.0279 25.8742 17.566 25.9159 18.1003C25.9334 18.325 25.8062 18.5385 25.5636 18.5415C25.3132 18.5444 25.2005 18.3349 25.1842 18.1102C25.152 17.6656 25.1297 17.2189 25.0684 16.778C24.7449 14.4502 22.8888 12.5244 20.5718 12.1111C20.2231 12.0489 19.8663 12.0326 19.5131 11.9955C19.2898 11.9721 18.9974 11.9585 18.948 11.681C18.9065 11.4483 19.1029 11.2631 19.3244 11.2512C19.3847 11.2478 19.4453 11.2506 19.5058 11.2508C22.6306 11.3384 19.4453 11.2506 19.5058 11.2508Z" fill="white"/>
<path d="M24.2558 17.4069C24.2507 17.4459 24.2479 17.5376 24.2251 17.624C24.1422 17.9378 23.6665 17.9771 23.557 17.6604C23.5246 17.5665 23.5197 17.4596 23.5195 17.3584C23.5184 16.6966 23.3745 16.0354 23.0408 15.4595C22.6977 14.8677 22.1736 14.3701 21.5588 14.0691C21.187 13.8871 20.785 13.7739 20.3776 13.7065C20.1995 13.6771 20.0195 13.6592 19.8406 13.6343C19.6237 13.6041 19.5079 13.4659 19.5182 13.2522C19.5278 13.052 19.6741 12.908 19.8923 12.9203C20.6095 12.961 21.3021 13.116 21.9397 13.4536C23.2362 14.1402 23.9767 15.2239 24.1929 16.6711C24.2027 16.7366 24.2184 16.8016 24.2234 16.8674C24.2356 17.0299 24.2433 17.1926 24.2558 17.4069C24.2507 17.4459 24.2433 17.1926 24.2558 17.4069Z" fill="white"/>
<path d="M22.3121 17.3313C22.0507 17.336 21.9108 17.1913 21.8838 16.9516C21.8651 16.7844 21.8503 16.6151 21.8104 16.4525C21.7318 16.1322 21.5616 15.8354 21.2922 15.6392C21.165 15.5465 21.0209 15.479 20.87 15.4354C20.6782 15.3801 20.4791 15.3953 20.2877 15.3484C20.0799 15.2975 19.965 15.1292 19.9977 14.9343C20.0274 14.7569 20.2 14.6184 20.3938 14.6324C21.6053 14.7199 22.4712 15.3463 22.5948 16.7725C22.6035 16.8732 22.6138 16.9795 22.5914 17.0758C22.5532 17.2406 22.4312 17.3232 22.3121 17.3313C22.0507 17.336 22.4312 17.3232 22.3121 17.3313Z" fill="white"/>
</svg>
