<svg width="39" height="39" viewBox="0 0 39 39" fill="none" xmlns="http://www.w3.org/2000/svg">
<path d="M39 0H0V39H39V0Z" fill="#1BD741"/>
<path d="M5.86133 33.1533L7.77166 26.3684C6.5432 24.2815 5.89641 21.907 5.89641 19.4677C5.89641 11.957 12.0068 5.84668 19.5174 5.84668C27.0281 5.84668 33.1383 11.957 33.1383 19.4677C33.1383 26.9783 27.0281 33.0887 19.5174 33.0887C17.1772 33.0887 14.8856 32.4896 12.8583 31.3522L5.86133 33.1533ZM13.2161 28.8741L13.633 29.1287C15.4005 30.2077 17.4353 30.7781 19.5174 30.7781C25.754 30.7781 30.8278 25.7043 30.8278 19.4677C30.8278 13.2311 25.754 8.15725 19.5174 8.15725C13.2808 8.15725 8.20699 13.2311 8.20699 19.4677C8.20699 21.6407 8.8246 23.751 9.99289 25.5702L10.2737 26.0075L9.17358 29.9147L13.2161 28.8741Z" fill="white"/>
<path d="M15.6912 13.1281L14.8073 13.0799C14.5297 13.0647 14.2574 13.1575 14.0476 13.3398C13.6191 13.7119 12.934 14.4312 12.7235 15.3686C12.4097 16.7664 12.8947 18.4779 14.1498 20.1894C15.405 21.901 17.7441 24.6394 21.8803 25.809C23.2131 26.1859 24.2616 25.9318 25.0706 25.4143C25.7113 25.0045 26.1529 24.3467 26.3121 23.603L26.4532 22.9439C26.4981 22.7344 26.3917 22.5218 26.1971 22.4322L23.21 21.0553C23.0161 20.966 22.7862 21.0224 22.6558 21.1915L21.4831 22.7116C21.3945 22.8265 21.2429 22.872 21.106 22.8239C20.3029 22.5417 17.6129 21.4151 16.1369 18.5719C16.0728 18.4486 16.0888 18.2989 16.1796 18.1937L17.3003 16.8972C17.4148 16.7648 17.4437 16.5787 17.3749 16.4178L16.0873 13.4054C16.0188 13.2451 15.8651 13.1376 15.6912 13.1281Z" fill="white"/>
</svg>
