<svg width="27" height="35" viewBox="0 0 27 35" fill="none" xmlns="http://www.w3.org/2000/svg">
<path d="M24.1169 34.0766H0V0.156692H24.1169C24.8604 0.149891 25.5777 0.396274 26.1161 0.843442C26.6545 1.29061 26.9716 1.90328 27 2.55116V31.679C26.9726 32.3274 26.6558 32.9409 26.1173 33.3887C25.5788 33.8366 24.861 34.0834 24.1169 34.0766ZM0.914986 33.2788H24.1169C24.6169 33.2832 25.0997 33.1201 25.4659 32.8233C25.8321 32.5264 26.0537 32.1183 26.085 31.6832V2.55116C26.054 2.11585 25.8325 1.70753 25.4663 1.41044C25.1001 1.11334 24.6171 0.950138 24.1169 0.954498H0.914986V33.2788Z" fill="#0B43DA"/>
<path d="M3.8916 5.5437H22.1962V6.20174H3.8916V5.5437Z" fill="#0B43DA"/>
<path d="M5.72168 28.0376H20.3663V28.8517H5.72168V28.0376Z" fill="#0B43DA"/>
<path d="M5.96875 7.02539H20.5617V7.43721H5.96875V7.02539Z" fill="#0B43DA"/>
<path d="M18.5387 17.5858C18.8201 16.9009 18.9107 16.1675 18.8028 15.4462C18.6949 14.7248 18.3917 14.0362 17.9182 13.4372C17.5304 15.1279 14.6824 16.5967 14.6824 16.5967C14.6824 16.5967 14.8763 16.0884 14.6182 16.2015C14.3601 16.3145 14.0353 16.0884 14.2946 15.5801C14.554 15.0719 15.2641 15.5241 15.2641 15.5241L15.458 15.3551C15.6519 15.1289 15.0048 14.9599 15.1987 14.8468C15.3926 14.7337 15.9113 15.0159 15.9113 15.0159C15.9113 15.0159 15.9755 15.0159 16.041 14.6777C16.1064 14.3396 15.3284 14.5087 15.458 14.0564C15.5877 13.6041 15.5223 13.6654 14.8109 13.6084C14.0995 13.5513 14.4231 14.1198 14.4231 14.1198H14.3588C13.8414 14.1198 13.7117 13.5513 13.971 13.1001C14.2304 12.6489 13.3239 12.725 13.3239 12.725L13.0645 12.1248H13.0245L12.7652 12.6954C12.7652 12.6954 11.8587 12.7017 12.118 13.154C12.3774 13.6062 12.2477 14.1198 11.7302 14.1198H11.6648C11.6648 14.1198 11.9884 13.5513 11.277 13.6084C10.5656 13.6654 10.5001 13.6348 10.6298 14.086C10.7595 14.5372 9.98266 14.3533 10.0469 14.6915C10.1111 15.0296 10.1766 15.0222 10.1766 15.0222C10.1766 15.0222 10.694 14.7358 10.8892 14.8489C11.0843 14.962 10.4359 15.1289 10.6298 15.3551L10.8237 15.5231C10.8237 15.5231 11.5363 15.0719 11.7932 15.5791C12.0502 16.0863 11.729 16.3124 11.4697 16.1994C11.2103 16.0863 11.4054 16.5946 11.4054 16.5946C11.4054 16.5946 8.55867 15.1279 8.16965 13.4351C7.69637 14.0341 7.39327 14.7227 7.28539 15.4441C7.1775 16.1654 7.26791 16.8988 7.54916 17.5836C7.37101 17.6291 7.15529 17.7421 7.45705 18.0063C7.91031 18.4015 8.03998 18.4015 8.29812 18.9658C8.55625 19.5301 9.01071 20.5508 9.13918 20.7146C9.15522 20.7371 9.16979 20.7604 9.1828 20.7844C9.1198 20.8213 9.06853 20.8716 9.03375 20.9305C8.99897 20.9893 8.98181 21.0549 8.98387 21.1211C8.98592 21.1873 9.00713 21.252 9.0455 21.3091C9.08388 21.3663 9.1382 21.414 9.2034 21.448C9.30719 21.5197 9.43463 21.5604 9.56697 21.5642C9.67362 21.7682 9.77785 21.9341 9.85298 21.9552C10.0069 21.9996 10.1184 21.7629 10.0639 21.467C10.4129 21.3391 10.7413 21.1341 10.9534 21.1648C11.3412 21.2208 10.3062 21.7291 10.7595 22.2373C11.2127 22.7456 12.5773 22.6906 12.9979 23.0594C13.0112 23.088 13.027 23.1006 13.0439 23.0964C13.0609 23.0922 13.0766 23.089 13.09 23.0594C13.5117 22.6906 14.8848 22.734 15.3284 22.2373C15.7719 21.7407 14.7454 21.2218 15.1345 21.1648C15.3465 21.1341 15.675 21.3391 16.024 21.467C15.9695 21.7629 16.0822 21.9953 16.2349 21.9552C16.31 21.933 16.4142 21.7682 16.5209 21.5642C16.6532 21.5602 16.7805 21.5195 16.8844 21.448C16.9497 21.414 17.004 21.3663 17.0423 21.3091C17.0807 21.252 17.1019 21.1873 17.104 21.1211C17.106 21.0549 17.0889 20.9893 17.0541 20.9305C17.0193 20.8716 16.9681 20.8213 16.9051 20.7844C16.9178 20.7603 16.9324 20.737 16.9487 20.7146C17.0784 20.5456 17.5316 19.529 17.7897 18.9658C18.0479 18.4026 18.1775 18.4015 18.6308 18.0063C18.9326 17.7443 18.7156 17.6312 18.5387 17.5858ZM10.4371 19.5322C9.14281 20.1535 10.8904 20.7738 10.8904 20.7738C10.5273 20.8676 10.1381 20.8478 9.78997 20.7178C9.75211 20.6987 9.7113 20.6845 9.66878 20.6755C9.30521 20.0743 8.71622 19.1338 8.28236 18.4427L8.3066 18.4607C9.86026 19.4762 11.1534 18.8559 11.283 18.5167C11.4127 18.1775 11.7314 18.9109 10.4371 19.5311V19.5322ZM13.6475 14.3734C13.4934 14.8137 13.2984 15.2424 13.0645 15.6552C13.0645 15.6552 13.0573 15.7746 13.0451 16.0419L13.0257 15.6002C12.789 15.2105 12.5939 14.8027 12.4428 14.3819C12.3786 14.0437 12.7664 14.123 12.8961 14.123H13.1942C13.3239 14.1219 13.7117 14.0289 13.6475 14.3723V14.3734ZM16.4276 20.6745C16.385 20.6833 16.3442 20.6976 16.3064 20.7167C15.9583 20.8469 15.569 20.8667 15.206 20.7727C15.206 20.7727 16.9535 20.1514 15.6592 19.5311C14.3649 18.9109 14.6897 18.1764 14.8182 18.5156C14.9466 18.8548 16.2421 19.4751 17.7946 18.4596L17.8188 18.4417C17.3472 19.1822 16.8834 19.9265 16.4276 20.6745Z" fill="#0B43DA"/>
</svg>
