<svg width="50" height="25" viewBox="0 0 50 25" fill="none" xmlns="http://www.w3.org/2000/svg">
<g clip-path="url(#clip0)">
<path d="M10.6674 15.1514C10.1013 15.1511 9.54788 15.3282 9.07713 15.6601C8.60638 15.9919 8.23944 16.4638 8.02272 17.0159C7.806 17.568 7.74924 18.1755 7.85962 18.7617C7.97 19.3479 8.24256 19.8863 8.64283 20.3089C9.04309 20.7315 9.55308 21.0192 10.1083 21.1358C10.6635 21.2523 11.2389 21.1924 11.7619 20.9636C12.2848 20.7348 12.7317 20.3474 13.046 19.8504C13.3604 19.3534 13.5281 18.7691 13.5279 18.1714C13.5276 17.3706 13.2261 16.6026 12.6897 16.0363C12.1533 15.47 11.4259 15.1517 10.6674 15.1514ZM10.6674 20.2694C10.2745 20.2694 9.89056 20.1464 9.56396 19.916C9.23735 19.6856 8.9828 19.3581 8.83248 18.975C8.68216 18.5919 8.64283 18.1702 8.71946 17.7635C8.79609 17.3568 8.98524 16.9831 9.263 16.6899C9.54075 16.3966 9.89463 16.1969 10.2799 16.116C10.6651 16.0351 11.0645 16.0766 11.4274 16.2354C11.7903 16.3941 12.1005 16.6628 12.3187 17.0076C12.5369 17.3525 12.6534 17.7579 12.6534 18.1726C12.6534 18.7287 12.4442 19.262 12.0717 19.6553C11.6992 20.0485 11.1941 20.2694 10.6674 20.2694V20.2694Z" fill="#0B43DA" stroke="#0B43DA" stroke-width="0.1"/>
<path d="M38.3256 15.1514C37.7595 15.1511 37.2061 15.3282 36.7353 15.6601C36.2646 15.9919 35.8976 16.4638 35.6809 17.0159C35.4642 17.568 35.4074 18.1755 35.5178 18.7617C35.6282 19.3479 35.9008 19.8863 36.301 20.3089C36.7013 20.7315 37.2113 21.0192 37.7665 21.1358C38.3217 21.2523 38.8971 21.1924 39.4201 20.9636C39.943 20.7348 40.3899 20.3474 40.7043 19.8504C41.0186 19.3534 41.1863 18.7691 41.1861 18.1714C41.1858 17.3706 40.8843 16.6026 40.3479 16.0363C39.8115 15.47 39.0841 15.1517 38.3256 15.1514V15.1514ZM38.3256 20.2694C37.9328 20.2694 37.5488 20.1464 37.2222 19.916C36.8956 19.6856 36.641 19.3581 36.4907 18.975C36.3404 18.5919 36.301 18.1702 36.3777 17.7635C36.4543 17.3568 36.6434 16.9831 36.9212 16.6899C37.199 16.3966 37.5528 16.1969 37.9381 16.116C38.3234 16.0351 38.7227 16.0766 39.0856 16.2354C39.4485 16.3941 39.7587 16.6628 39.9769 17.0076C40.1951 17.3525 40.3116 17.7579 40.3116 18.1726C40.3116 18.7287 40.1024 19.262 39.7299 19.6553C39.3575 20.0485 38.8523 20.2694 38.3256 20.2694V20.2694Z" fill="#0B43DA" stroke="#0B43DA" stroke-width="0.1"/>
<path d="M49.7875 13.0262L48.7028 11.9546V10.8274C48.6984 10.3455 48.5555 9.87638 48.293 9.48212C48.0305 9.08786 47.6608 8.78706 47.2328 8.61956L41.8337 6.59636C40.9909 6.27954 40.1038 6.11413 39.2092 6.10699H37.485L31.1159 1.90426C29.2824 0.684886 27.1572 0.0438636 24.9903 0.056645H17.8154C15.7198 0.0463384 13.6618 0.643919 11.8659 1.78418L5.7414 5.70144L2.8444 6.02429C2.27174 6.08171 1.74156 6.36819 1.36253 6.82503C0.983491 7.28187 0.7843 7.87446 0.805777 8.48136L0.913073 11.2522L0.107279 12.8381C0.0724262 12.9027 0.0542919 12.9757 0.0547036 13.05V15.4799C0.0529064 15.9711 0.201234 16.4498 0.477652 16.8449C0.754069 17.24 1.14383 17.5304 1.58904 17.673L4.5032 18.5962C4.54679 18.6052 4.59159 18.6052 4.63518 18.5962H5.37874C5.49484 18.5962 5.60619 18.5475 5.68829 18.4609C5.77039 18.3742 5.81651 18.2566 5.81651 18.134C5.86921 16.8104 6.40433 15.5594 7.31009 14.6424C8.21585 13.7255 9.42217 13.2136 10.677 13.2136C11.9319 13.2136 13.1382 13.7255 14.044 14.6424C14.9497 15.5594 15.4848 16.8104 15.5375 18.134C15.5375 18.2566 15.5837 18.3742 15.6658 18.4609C15.7479 18.5475 15.8592 18.5962 15.9753 18.5962H33.0268C33.0843 18.5962 33.1412 18.5843 33.1943 18.561C33.2475 18.5378 33.2957 18.5038 33.3364 18.4609C33.377 18.4179 33.4093 18.367 33.4313 18.3109C33.4533 18.2548 33.4646 18.1947 33.4646 18.134C33.5173 16.8104 34.0524 15.5594 34.9582 14.6424C35.8639 13.7255 37.0702 13.2136 38.3251 13.2136C39.5799 13.2136 40.7863 13.7255 41.692 14.6424C42.5978 15.5594 43.1329 16.8104 43.1856 18.134C43.1856 18.2566 43.2317 18.3742 43.3138 18.4609C43.3959 18.5475 43.5073 18.5962 43.6234 18.5962H44.0783L48.191 17.5337C48.6871 17.4181 49.131 17.1271 49.4492 16.709C49.7675 16.2908 49.9409 15.7705 49.941 15.234V13.4148C49.9449 13.342 49.9331 13.2692 49.9065 13.2019C49.8799 13.1346 49.8393 13.0745 49.7875 13.0262V13.0262ZM1.66307 8.85065H2.94097C2.97159 8.84899 3.002 8.85679 3.02848 8.87308C3.05497 8.88938 3.07639 8.91347 3.09011 8.94241C3.10649 8.96843 3.11523 8.99897 3.11523 9.03021C3.11523 9.06144 3.10649 9.09198 3.09011 9.118H3.11694L2.91522 9.60738C2.90604 9.64055 2.88678 9.66961 2.86041 9.69008C2.83404 9.71055 2.80202 9.7213 2.7693 9.72065L1.73711 9.81241L1.66307 8.85065ZM49.0526 15.2624C49.0509 15.588 48.9456 15.9036 48.7535 16.1584C48.5614 16.4132 48.2937 16.5923 47.9935 16.6671L44.0386 17.6866C43.9131 16.1768 43.2563 14.7715 42.1977 13.7477C41.1392 12.7239 39.7558 12.1561 38.3203 12.1561C36.8847 12.1561 35.5013 12.7239 34.4428 13.7477C33.3843 14.7715 32.7275 16.1768 32.6019 17.6866H16.3895C16.2902 16.1568 15.6446 14.7239 14.5831 13.6774C13.5216 12.6309 12.1234 12.0488 10.6711 12.0488C9.2188 12.0488 7.82063 12.6309 6.75916 13.6774C5.69769 14.7239 5.05207 16.1568 4.95277 17.6866H4.69097L1.84762 16.7633C1.59014 16.6715 1.36677 16.4961 1.2095 16.2621C1.05223 16.0281 0.969125 15.7475 0.972086 15.4606V13.1463L1.73389 11.5671C1.77618 11.5005 1.79481 11.4203 1.78646 11.3406V10.7175L2.83582 10.6439C3.02586 10.6232 3.2072 10.5492 3.36112 10.4297C3.51504 10.3102 3.63595 10.1495 3.71136 9.96421L3.90449 9.47484C3.97166 9.3057 3.99844 9.12173 3.98247 8.93911C3.96649 8.75648 3.90826 8.5808 3.81288 8.42752C3.7175 8.27423 3.58791 8.14804 3.43549 8.06005C3.28308 7.97205 3.11252 7.92495 2.93882 7.92288H1.75106C1.8377 7.65712 1.99515 7.4234 2.20451 7.24979C2.41386 7.07618 2.66623 6.97004 2.93131 6.94413L5.94097 6.62128C6.00504 6.61598 6.06744 6.5971 6.12445 6.56578L12.3476 2.58395C13.999 1.5321 15.8911 0.976292 17.8197 0.976488H25.0472C27.0408 0.973924 28.994 1.57078 30.6781 2.69723L37.1266 6.9464C37.1951 6.9903 37.274 7.0127 37.3541 7.01097H39.1652C39.976 7.01374 40.7806 7.1608 41.545 7.44597L46.9345 9.46917C47.1932 9.57001 47.4161 9.75278 47.5726 9.99246C47.7291 10.2321 47.8117 10.517 47.809 10.8082V12.1381C47.8097 12.2017 47.8223 12.2645 47.8463 12.3228C47.8702 12.3812 47.905 12.4339 47.9485 12.4779L49.0332 13.5496L49.0526 15.2624Z" fill="#0B43DA" stroke="#0B43DA" stroke-width="0.1"/>
<path d="M14.0875 8.18683H11.6905C11.5783 8.1927 11.4725 8.24389 11.3951 8.32982C11.3176 8.41575 11.2744 8.52983 11.2744 8.64844C11.2744 8.76706 11.3176 8.88114 11.3951 8.96707C11.4725 9.053 11.5783 9.10419 11.6905 9.11007H14.0875C14.1997 9.10419 14.3055 9.053 14.383 8.96707C14.4604 8.88114 14.5036 8.76706 14.5036 8.64844C14.5036 8.52983 14.4604 8.41575 14.383 8.32982C14.3055 8.24389 14.1997 8.1927 14.0875 8.18683V8.18683Z" fill="#0B43DA" stroke="#0B43DA" stroke-width="0.1"/>
<path d="M22.5589 9.30375H24.6683C24.7275 9.30685 24.7868 9.2972 24.8424 9.2754C24.898 9.2536 24.9488 9.2201 24.9918 9.17693C25.0347 9.13376 25.0689 9.08182 25.0923 9.02427C25.1157 8.96672 25.1277 8.90475 25.1277 8.84213C25.1277 8.77951 25.1157 8.71754 25.0923 8.65999C25.0689 8.60243 25.0347 8.55049 24.9918 8.50732C24.9488 8.46415 24.898 8.43065 24.8424 8.40885C24.7868 8.38705 24.7275 8.37741 24.6683 8.38051H22.5589C22.4428 8.38051 22.3314 8.4292 22.2493 8.51588C22.1672 8.60256 22.1211 8.72012 22.1211 8.8427C22.1233 8.96444 22.1702 9.08053 22.2518 9.16653C22.3335 9.25253 22.4435 9.30172 22.5589 9.30375V9.30375Z" fill="#0B43DA" stroke="#0B43DA" stroke-width="0.1"/>
<path d="M46.9537 10.2927C46.9079 10.1591 46.8336 10.0386 46.7364 9.94034C46.6393 9.8421 46.522 9.76884 46.3937 9.72627L42.4913 8.43374C42.4077 8.40544 42.3179 8.40435 42.2337 8.4306C42.1495 8.45685 42.0747 8.50923 42.0191 8.58093C41.9634 8.65264 41.9295 8.74035 41.9217 8.83268C41.9138 8.92502 41.9325 9.0177 41.9752 9.0987L43.0074 11.0245C43.1049 11.2089 43.2595 11.3525 43.4452 11.4312L46.2274 12.6138C46.385 12.6806 46.5576 12.6976 46.7242 12.6627C46.8908 12.6277 47.0442 12.5424 47.1656 12.417C47.2871 12.2917 47.3714 12.1317 47.4082 11.9567C47.4451 11.7816 47.433 11.599 47.3733 11.4312L46.9537 10.2927ZM43.751 10.5793L43.2606 9.65491L46.1308 10.5793L46.5331 11.7246L43.751 10.5793Z" fill="#0B43DA" stroke="#0B43DA" stroke-width="0.1"/>
<path d="M20.6599 7.22621C20.7735 7.22522 20.8827 7.17912 20.9657 7.09707C21.0482 7.0078 21.0953 6.88872 21.0976 6.76402V1.97903C21.0957 1.85709 21.049 1.74071 20.9673 1.65447C20.8856 1.56824 20.7754 1.51889 20.6599 1.51685C18.7779 1.51685 15.4099 1.59954 14.3294 2.23732C12.9034 3.04161 11.0751 6.19196 10.9957 6.31543C10.9575 6.38722 10.9375 6.46817 10.9375 6.55049C10.9375 6.63281 10.9575 6.71376 10.9957 6.78555C11.0338 6.8552 11.0887 6.9129 11.1549 6.95272C11.2211 6.99253 11.2961 7.01303 11.3723 7.01211L20.6212 7.21602L20.6599 7.22621ZM20.2221 6.30184L12.1545 6.12625C12.8445 4.94336 13.734 3.90401 14.779 3.05973C16.5601 2.54727 18.4079 2.34148 20.2511 2.45028L20.2221 6.30184Z" fill="#0B43DA" stroke="#0B43DA" stroke-width="0.1"/>
<path d="M26.0744 1.77967C24.9591 1.67402 23.8415 1.59847 22.7225 1.55311C22.6066 1.5482 22.4935 1.5921 22.4082 1.67515C22.3229 1.75821 22.2723 1.87362 22.2676 1.99604V6.80935C22.2697 6.92968 22.3153 7.0446 22.3951 7.13054C22.4749 7.21648 22.5829 7.26693 22.6968 7.27154L26.3717 7.34517L34.8856 7.96368C34.9697 7.96354 35.052 7.93838 35.1232 7.8911C35.1944 7.84381 35.2515 7.77632 35.288 7.69634C35.3227 7.61039 35.3329 7.51559 35.3173 7.42361C35.3016 7.33163 35.2609 7.24648 35.2 7.17864C35.0348 6.94755 30.5111 2.18975 26.0744 1.77967V1.77967ZM26.4092 6.39361L23.1453 6.32904V2.49561C24.1431 2.54205 25.1141 2.60888 25.9983 2.68931C29.0079 2.97591 32.1925 5.56212 33.7418 6.94755L26.4092 6.39361Z" fill="#0B43DA" stroke="#0B43DA" stroke-width="0.1"/>
<path d="M31.2651 15.4561H17.4239C17.3117 15.4619 17.2059 15.5131 17.1285 15.5991C17.051 15.685 17.0078 15.7991 17.0078 15.9177C17.0078 16.0363 17.051 16.1504 17.1285 16.2363C17.2059 16.3222 17.3117 16.3734 17.4239 16.3793H31.2651C31.3806 16.3773 31.4908 16.3279 31.5725 16.2417C31.6542 16.1554 31.7009 16.0391 31.7029 15.9171C31.7029 15.8565 31.6916 15.7964 31.6695 15.7404C31.6475 15.6844 31.6153 15.6335 31.5746 15.5907C31.5339 15.5479 31.4857 15.5139 31.4326 15.4908C31.3795 15.4677 31.3226 15.4559 31.2651 15.4561Z" fill="#0B43DA" stroke="#0B43DA" stroke-width="0.1"/>
<path d="M49.4904 21.7942H40.8981C41.6241 21.2234 42.1613 20.4256 42.4334 19.5141C42.7055 18.6026 42.6987 17.6238 42.4139 16.7167C42.1291 15.8095 41.5808 15.0202 40.8469 14.4607C40.1131 13.9013 39.2309 13.6002 38.3257 13.6002C37.4205 13.6002 36.5384 13.9013 35.8045 14.4607C35.0706 15.0202 34.5223 15.8095 34.2376 16.7167C33.9528 17.6238 33.9459 18.6026 34.218 19.5141C34.4901 20.4256 35.0273 21.2234 35.7533 21.7942H13.2404C13.9631 21.2233 14.4972 20.4267 14.767 19.5174C15.0368 18.6081 15.0287 17.6322 14.7438 16.728C14.4588 15.8239 13.9116 15.0374 13.1795 14.48C12.4475 13.9226 11.5678 13.6226 10.6653 13.6226C9.76275 13.6226 8.88311 13.9226 8.15107 14.48C7.41903 15.0374 6.87176 15.8239 6.58683 16.728C6.3019 17.6322 6.29378 18.6081 6.56361 19.5174C6.83345 20.4267 7.36755 21.2233 8.09019 21.7942H0.491479C0.375376 21.7942 0.264028 21.8429 0.181931 21.9295C0.099833 22.0162 0.0537109 22.1338 0.0537109 22.2564C0.0537109 22.3789 0.099833 22.4965 0.181931 22.5832C0.264028 22.6698 0.375376 22.7185 0.491479 22.7185H49.4904C49.6065 22.7185 49.7179 22.6698 49.8 22.5832C49.8821 22.4965 49.9282 22.3789 49.9282 22.2564C49.9282 22.1338 49.8821 22.0162 49.8 21.9295C49.7179 21.8429 49.6065 21.7942 49.4904 21.7942V21.7942ZM7.24577 18.1692C7.24577 17.4522 7.44714 16.7514 7.82442 16.1552C8.20169 15.5591 8.73793 15.0945 9.36531 14.8201C9.9927 14.5458 10.6831 14.474 11.3491 14.6138C12.0151 14.7537 12.6269 15.099 13.1071 15.6059C13.5873 16.1129 13.9143 16.7588 14.0468 17.462C14.1792 18.1652 14.1112 18.894 13.8514 19.5564C13.5915 20.2188 13.1514 20.7849 12.5868 21.1832C12.0222 21.5816 11.3583 21.7942 10.6792 21.7942H10.6707C9.7621 21.7918 8.89147 21.4093 8.24951 20.7304C7.60756 20.0516 7.24662 19.1318 7.24577 18.1726V18.1692ZM34.8949 18.1692C34.8949 17.4522 35.0963 16.7514 35.4736 16.1552C35.8508 15.5591 36.3871 15.0945 37.0145 14.8201C37.6418 14.5458 38.3322 14.474 38.9982 14.6138C39.6643 14.7537 40.276 15.099 40.7562 15.6059C41.2364 16.1129 41.5634 16.7588 41.6959 17.462C41.8284 18.1652 41.7604 18.894 41.5005 19.5564C41.2406 20.2188 40.8006 20.7849 40.2359 21.1832C39.6713 21.5816 39.0075 21.7942 38.3284 21.7942C37.4185 21.7939 36.546 21.4123 35.9024 20.7332C35.2588 20.0542 34.8968 19.1332 34.896 18.1726L34.8949 18.1692Z" fill="#0B43DA" stroke="#0B43DA" stroke-width="0.1"/>
<path d="M49.4906 24.0202H0.491661C0.432421 24.0171 0.373202 24.0267 0.317599 24.0485C0.261996 24.0703 0.211169 24.1038 0.168203 24.147C0.125237 24.1901 0.0910288 24.2421 0.0676542 24.2996C0.0442796 24.3572 0.0322266 24.4192 0.0322266 24.4818C0.0322266 24.5444 0.0442796 24.6064 0.0676542 24.6639C0.0910288 24.7215 0.125237 24.7734 0.168203 24.8166C0.211169 24.8598 0.261996 24.8933 0.317599 24.9151C0.373202 24.9369 0.432421 24.9465 0.491661 24.9434H49.4906C49.5498 24.9465 49.6091 24.9369 49.6647 24.9151C49.7203 24.8933 49.7711 24.8598 49.814 24.8166C49.857 24.7734 49.8912 24.7215 49.9146 24.6639C49.938 24.6064 49.95 24.5444 49.95 24.4818C49.95 24.4192 49.938 24.3572 49.9146 24.2996C49.8912 24.2421 49.857 24.1901 49.814 24.147C49.7711 24.1038 49.7203 24.0703 49.6647 24.0485C49.6091 24.0267 49.5498 24.0171 49.4906 24.0202V24.0202Z" fill="#0B43DA" stroke="#0B43DA" stroke-width="0.1"/>
</g>
<defs>
<clipPath id="clip0">
<rect width="50" height="25" fill="white"/>
</clipPath>
</defs>
</svg>
