<svg width="50" height="25" viewBox="0 0 50 25" fill="none" xmlns="http://www.w3.org/2000/svg">
<path d="M49.218 13.252C49.3331 13.252 49.4434 13.2095 49.5248 13.1338C49.6062 13.0581 49.6519 12.9554 49.6519 12.8483V11.0888C49.6519 10.9805 49.6056 10.8766 49.5234 10.8001C49.4411 10.7235 49.3295 10.6805 49.2131 10.6805C49.0968 10.6805 48.9852 10.7235 48.9029 10.8001C48.8207 10.8766 48.7744 10.9805 48.7744 11.0888V12.8442C48.7738 12.8984 48.7849 12.9521 48.8071 13.0021C48.8292 13.0522 48.862 13.0976 48.9034 13.1356C48.9448 13.1737 48.9939 13.2036 49.048 13.2236C49.102 13.2436 49.1599 13.2533 49.218 13.252Z" fill="#0B43DA" stroke="#0B43DA" stroke-width="0.1"/>
<path d="M47.1572 18.5092C47.188 18.5939 47.2462 18.6677 47.3239 18.7203C47.4016 18.7729 47.4949 18.8018 47.591 18.803C47.8998 18.8035 48.2056 18.7474 48.491 18.6379C48.7765 18.5284 49.036 18.3676 49.2546 18.1648C49.4733 17.9619 49.6469 17.7209 49.7654 17.4556C49.884 17.1903 49.9453 16.9059 49.9457 16.6185V14.5905C49.9437 14.2805 49.8101 13.9837 49.574 13.765C49.338 13.5462 49.0185 13.4231 48.6854 13.4226H48.6323V10.798C48.6298 10.3556 48.4566 9.92872 48.1442 9.59519C47.8318 9.26167 47.4011 9.04371 46.9305 8.98103L36.4099 7.64149C36.3003 7.62755 36.1959 7.58904 36.1058 7.52925C36.0156 7.46947 35.9425 7.3902 35.8926 7.29828C32.6908 1.58379 28.0769 0.105958 27.8839 0.0403442H6.27757C5.85285 0.0436839 5.44202 0.181581 5.11278 0.431314C4.78353 0.681047 4.55552 1.02772 4.46629 1.4142L3.87844 3.96104C3.597 3.68575 3.23308 3.49563 2.83399 3.4154C2.43491 3.33516 2.01912 3.36853 1.64068 3.51116C1.26225 3.65379 0.938665 3.89908 0.712007 4.21515C0.48535 4.53121 0.366101 4.90344 0.369764 5.28342V11.5612C0.36976 12.0643 0.584002 12.547 0.96557 12.9035C1.34714 13.2599 1.86493 13.4611 2.40556 13.463C2.49898 13.4713 2.59305 13.4713 2.68647 13.463V14.5491C2.69105 15.6903 3.18073 16.7833 4.04851 17.5894C4.91629 18.3956 6.09163 18.8493 7.3177 18.8514H7.66803C7.76596 18.8534 7.86158 18.8236 7.9384 18.767C8.01522 18.7104 8.06843 18.6307 8.08885 18.5415L9.43918 13.7416H11.9912C11.1054 14.1038 10.3412 14.6821 9.77957 15.4153C9.21789 16.1485 8.8796 17.0094 8.80047 17.9069C8.72134 18.8044 8.90433 19.7051 9.33007 20.5137C9.75581 21.3223 10.4085 22.0088 11.219 22.5006H0.493408C0.377052 22.5006 0.265462 22.5436 0.183186 22.6202C0.10091 22.6967 0.0546875 22.8006 0.0546875 22.9089C0.0546875 23.0172 0.10091 23.121 0.183186 23.1976C0.265462 23.2742 0.377052 23.3172 0.493408 23.3172H49.5075C49.6239 23.3172 49.7355 23.2742 49.8177 23.1976C49.9 23.121 49.9462 23.0172 49.9462 22.9089C49.9462 22.8006 49.9 22.6967 49.8177 22.6202C49.7355 22.5436 49.6239 22.5006 49.5075 22.5006H44.1572C44.9905 21.9984 45.6575 21.2906 46.0839 20.4562C46.5103 19.6217 46.6792 18.6935 46.572 17.7749C46.4647 16.8564 46.0853 15.9836 45.4762 15.254C44.8672 14.5243 44.0523 13.9665 43.1225 13.6427H45.6312L47.1572 18.5092ZM3.58018 10.043H3.94894C4.09536 10.043 4.23577 10.0971 4.33931 10.1935C4.44284 10.2898 4.501 10.4205 4.501 10.5568V11.7812C4.49844 11.9159 4.43915 12.0443 4.3359 12.1387C4.23264 12.2331 4.09368 12.286 3.94894 12.286H3.58018V10.043ZM1.26456 11.545V5.26727C1.28818 4.9955 1.42086 4.74197 1.63619 4.55711C1.85153 4.37225 2.13375 4.26961 2.42671 4.26961C2.71966 4.26961 3.00188 4.37225 3.21722 4.55711C3.43256 4.74197 3.56523 4.9955 3.58885 5.26727L2.7125 9.07996C2.70801 9.10976 2.70801 9.13999 2.7125 9.1698V12.6312C2.40979 12.6981 2.09095 12.6506 1.82571 12.4993C1.56047 12.348 1.37041 12.105 1.2971 11.8236C1.27333 11.7325 1.26239 11.6388 1.26456 11.545ZM9.15827 12.8755C9.06143 12.8733 8.96675 12.9023 8.89012 12.9574C8.81349 13.0125 8.75958 13.0905 8.73744 13.1783L7.38712 17.9863C6.39268 17.9863 5.43887 17.6191 4.73508 16.9652C4.03129 16.3113 3.63505 15.4242 3.63332 14.4987V13.1127H3.94894C4.32657 13.1127 4.68886 12.9736 4.9567 12.7259C5.22453 12.4781 5.37615 12.1418 5.37844 11.7903V10.5618C5.37958 10.3871 5.34374 10.2139 5.27295 10.0521C5.20217 9.89024 5.09783 9.74298 4.96589 9.61868C4.83396 9.49439 4.67701 9.39549 4.50401 9.32765C4.33101 9.25981 4.14534 9.22435 3.95762 9.22329H3.58018V9.16677L4.45653 5.34601L5.33397 1.59086C5.38143 1.38739 5.50215 1.20511 5.67612 1.07422C5.85009 0.943329 6.06688 0.871672 6.29059 0.87112H27.6322C28.1745 1.05888 32.2374 2.62655 35.0791 7.70408C35.1944 7.91125 35.3613 8.08973 35.5658 8.2246C35.7703 8.35947 36.0066 8.44681 36.2548 8.47933L46.7754 9.81887C47.0359 9.8519 47.2746 9.97185 47.4472 10.1564C47.6198 10.341 47.7144 10.5776 47.7136 10.8223V13.8506C47.7136 13.9577 47.7593 14.0604 47.8407 14.1361C47.922 14.2118 48.0324 14.2544 48.1474 14.2544H48.6854C48.7861 14.2544 48.8829 14.291 48.955 14.3564C49.0272 14.4219 49.069 14.5109 49.0715 14.6047V16.6377C49.0703 16.9504 48.9538 17.2532 48.7413 17.4954C48.5288 17.7376 48.2334 17.9045 47.9045 17.9681L46.386 13.0703C46.3601 12.9852 46.305 12.9104 46.2289 12.8573C46.1529 12.8042 46.0602 12.7759 45.9652 12.7766H36.4555C36.3586 12.7742 36.2638 12.8031 36.1871 12.8582C36.1104 12.9134 36.0566 12.9915 36.0346 13.0794L34.6398 17.9863H20.8947L19.3687 13.1692C19.3428 13.0841 19.2876 13.0093 19.2116 12.9562C19.1355 12.9032 19.0429 12.8748 18.9479 12.8755H9.15827ZM9.72009 18.2639C9.72009 17.4356 9.98401 16.6258 10.4785 15.9371C10.9729 15.2483 11.6757 14.7115 12.498 14.3945C13.3203 14.0775 14.2251 13.9946 15.098 14.1562C15.9709 14.3178 16.7727 14.7167 17.4021 15.3024C18.0314 15.8881 18.46 16.6344 18.6336 17.4468C18.8073 18.2593 18.7181 19.1014 18.3776 19.8667C18.037 20.632 17.4602 21.2861 16.7202 21.7463C15.9801 22.2065 15.1101 22.4521 14.2201 22.4521H14.2114C13.0181 22.4607 11.87 22.0278 11.0196 21.2487C10.1692 20.4695 9.68616 19.4078 9.67671 18.2972V18.2639H9.72009ZM45.7711 18.2639C45.7815 19.0921 45.5279 19.9046 45.0423 20.5986C44.5566 21.2926 43.8608 21.8371 43.0428 22.1631C42.2247 22.4891 41.3212 22.5821 40.4464 22.4303C39.5716 22.2784 38.7648 21.8886 38.128 21.31C37.4912 20.7315 37.053 19.9902 36.8688 19.1799C36.6846 18.3696 36.7627 17.5266 37.0932 16.7576C37.4237 15.9886 37.9918 15.3281 38.7256 14.8595C39.4593 14.391 40.3259 14.1354 41.2158 14.1252H41.2234C42.4077 14.1251 43.5443 14.5596 44.3867 15.3343C45.2291 16.1091 45.7094 17.1617 45.7234 18.2639H45.7711ZM35.9012 18.2639C35.9002 19.0959 36.1227 19.9149 36.5485 20.6464C36.9744 21.3778 37.59 21.9986 38.3394 22.4521H17.1062C17.919 21.9613 18.5736 21.2746 19.0004 20.465C19.4273 19.6555 19.6104 18.7534 19.5302 17.8548C19.4501 16.9561 19.1098 16.0945 18.5455 15.3615C17.9811 14.6285 17.2139 14.0516 16.3253 13.6921H18.6236L20.1496 18.5092C20.1755 18.5943 20.2307 18.6691 20.3067 18.7222C20.3827 18.7753 20.4754 18.8037 20.5704 18.803H34.9815C35.0784 18.8053 35.1732 18.7765 35.2498 18.7213C35.3265 18.6661 35.3804 18.588 35.4023 18.5001L36.7971 13.6023H39.3318C38.3138 13.9602 37.4366 14.5977 36.8168 15.4303C36.197 16.2628 35.8637 17.251 35.8611 18.2639H35.9012Z" fill="#0B43DA" stroke="#0B43DA" stroke-width="0.1"/>
<path d="M7.69458 7.88777H16.4657C16.8211 7.88566 17.1614 7.75331 17.4127 7.5194C17.664 7.2855 17.8062 6.96886 17.8085 6.63807V2.98993C17.8085 2.61101 17.6468 2.24759 17.359 1.97956C17.0712 1.71153 16.6809 1.56081 16.2738 1.56055H8.74773C8.38215 1.56724 8.02797 1.68011 7.73471 1.88336C7.44145 2.08662 7.22379 2.3701 7.11215 2.69416L6.01562 5.73865C5.92051 5.98733 5.89162 6.25376 5.93142 6.51511C5.97122 6.77645 6.07852 7.02492 6.24413 7.2392C6.40974 7.45348 6.62872 7.62719 6.88228 7.74542C7.13585 7.86366 7.41644 7.92289 7.7 7.91805L7.69458 7.88777ZM6.81714 5.96982L7.92235 2.91624C7.98258 2.76102 8.09193 2.62644 8.23598 2.53021C8.38002 2.43399 8.55202 2.38064 8.72929 2.37719H16.2282C16.4021 2.37928 16.5683 2.44451 16.6912 2.55897C16.8142 2.67343 16.8843 2.82807 16.8866 2.98993V6.63909C16.8866 6.75394 16.8375 6.86409 16.7503 6.9453C16.663 7.02651 16.5447 7.07214 16.4213 7.07214H7.65445C7.50808 7.08113 7.36162 7.05578 7.22851 6.99842C7.0954 6.94105 6.97989 6.85351 6.89257 6.74381C6.80524 6.6341 6.74891 6.50576 6.72872 6.37053C6.70853 6.2353 6.72513 6.09752 6.77701 5.96982H6.81714Z" fill="#0B43DA" stroke="#0B43DA" stroke-width="0.1"/>
<path d="M22.869 8.41068L33.8332 8.90026C33.909 8.90116 33.9837 8.88356 34.0499 8.8492C34.1162 8.81484 34.1716 8.76492 34.2106 8.70443C34.2528 8.64071 34.2752 8.56732 34.2752 8.49245C34.2752 8.41758 34.2528 8.34419 34.2106 8.28046C34.062 8.0604 30.523 2.81834 27.8776 1.91286C27.8281 1.90445 27.7774 1.90445 27.728 1.91286H21.1846C21.1228 1.91319 21.0618 1.92578 21.0057 1.94981C20.9496 1.97383 20.8996 2.00873 20.8592 2.05217C20.8161 2.09385 20.7839 2.14422 20.7651 2.19937C20.7462 2.25451 20.7413 2.31295 20.7507 2.37014L21.3473 7.11455C21.3935 7.46384 21.5722 7.7863 21.8512 8.02391C22.1301 8.26151 22.491 8.39866 22.869 8.41068ZM27.6325 2.6962C29.4655 3.38969 31.9655 6.62295 32.9828 8.04627L22.9134 7.59707C22.7406 7.59052 22.5759 7.52688 22.4489 7.41755C22.3219 7.30823 22.2408 7.16036 22.2204 7.00048L21.6857 2.69821L27.6325 2.6962Z" fill="#0B43DA" stroke="#0B43DA" stroke-width="0.1"/>
<path d="M19.5442 9.31619C19.5442 9.2091 19.4985 9.1064 19.4172 9.03068C19.3358 8.95496 19.2255 8.91241 19.1104 8.91241H5.64185C5.52679 8.91241 5.41644 8.95496 5.33508 9.03068C5.25372 9.1064 5.20801 9.2091 5.20801 9.31619C5.21154 9.42224 5.25838 9.52304 5.33899 9.59807C5.4196 9.67309 5.52791 9.71668 5.64185 9.71997H19.105C19.2199 9.7182 19.3298 9.67524 19.4116 9.60004C19.4934 9.52483 19.5409 9.42317 19.5442 9.31619Z" fill="#0B43DA" stroke="#0B43DA" stroke-width="0.1"/>
<path d="M24.7541 9.72394C24.8681 9.72065 24.9764 9.67705 25.057 9.60203C25.1376 9.52701 25.1844 9.42621 25.188 9.32016C25.188 9.21307 25.1423 9.11037 25.0609 9.03465C24.9796 8.95893 24.8692 8.91638 24.7541 8.91638H22.2292C22.113 8.91638 22.0015 8.95935 21.9194 9.03583C21.8372 9.11231 21.791 9.21604 21.791 9.3242C21.791 9.43236 21.8372 9.53609 21.9194 9.61257C22.0015 9.68905 22.113 9.73202 22.2292 9.73202L24.7541 9.72394Z" fill="#0B43DA" stroke="#0B43DA" stroke-width="0.1"/>
<path d="M33.0864 12.2466H23.2979C22.978 12.2212 22.6604 12.315 22.4149 12.5075C22.1694 12.7001 22.0161 12.9755 21.9888 13.2732C21.9614 13.5709 22.0623 13.8665 22.2692 14.095C22.476 14.3235 22.7719 14.4662 23.0918 14.4916C23.1604 14.4973 23.2293 14.4973 23.2979 14.4916H33.0864C33.3886 14.4677 33.6702 14.3391 33.8754 14.1312C34.0805 13.9234 34.1944 13.6514 34.1944 13.3691C34.1944 13.0868 34.0805 12.8148 33.8754 12.6069C33.6702 12.3991 33.3886 12.2705 33.0864 12.2466ZM33.0864 13.676H23.2979C23.2547 13.6826 23.2104 13.6812 23.1678 13.672C23.1251 13.6627 23.0848 13.6457 23.0492 13.6219C23.0136 13.5982 22.9834 13.5681 22.9603 13.5335C22.9372 13.4988 22.9216 13.4603 22.9145 13.4201C22.9074 13.3798 22.9088 13.3387 22.9188 13.299C22.9287 13.2593 22.947 13.2218 22.9725 13.1886C22.9981 13.1555 23.0304 13.1274 23.0676 13.1059C23.1048 13.0843 23.1462 13.0699 23.1894 13.0632C23.2253 13.0574 23.262 13.0574 23.2979 13.0632H33.0864C33.1651 13.0744 33.2369 13.1114 33.2888 13.1676C33.3407 13.2238 33.3692 13.2955 33.3692 13.3696C33.3692 13.4437 33.3407 13.5154 33.2888 13.5716C33.2369 13.6278 33.1651 13.6648 33.0864 13.676Z" fill="#0B43DA" stroke="#0B43DA" stroke-width="0.1"/>
<path d="M14.1685 15.2023C13.5179 15.2023 12.8819 15.3818 12.3409 15.7183C11.7999 16.0547 11.3783 16.5328 11.1293 17.0923C10.8803 17.6517 10.8152 18.2673 10.9421 18.8612C11.069 19.4551 11.3823 20.0007 11.8424 20.4288C12.3025 20.857 12.8886 21.1486 13.5267 21.2668C14.1648 21.3849 14.8263 21.3243 15.4274 21.0925C16.0285 20.8608 16.5422 20.4684 16.9037 19.9649C17.2651 19.4614 17.4581 18.8695 17.4581 18.2639C17.4561 17.4525 17.1089 16.6748 16.4924 16.1011C15.8759 15.5273 15.0403 15.2041 14.1685 15.2023ZM14.1685 20.5089C13.6914 20.5091 13.2249 20.3776 12.8281 20.1311C12.4313 19.8845 12.1219 19.534 11.9392 19.1238C11.7565 18.7136 11.7085 18.2621 11.8015 17.8266C11.8944 17.391 12.1241 16.9909 12.4614 16.6768C12.7987 16.3627 13.2285 16.1488 13.6964 16.0621C14.1644 15.9754 14.6494 16.0198 15.0902 16.1897C15.5311 16.3596 15.9079 16.6473 16.173 17.0166C16.4381 17.3858 16.5796 17.8199 16.5796 18.2639C16.5796 18.8592 16.3256 19.43 15.8734 19.851C15.4213 20.272 14.808 20.5087 14.1685 20.5089Z" fill="#0B43DA" stroke="#0B43DA" stroke-width="0.1"/>
<path d="M37.9385 18.2639C37.9385 18.8695 38.1314 19.4614 38.4929 19.9649C38.8543 20.4684 39.3681 20.8608 39.9692 21.0925C40.5703 21.3243 41.2317 21.3849 41.8698 21.2668C42.5079 21.1486 43.0941 20.857 43.5542 20.4288C44.0142 20.0007 44.3275 19.4551 44.4544 18.8612C44.5814 18.2673 44.5162 17.6517 44.2672 17.0923C44.0183 16.5328 43.5966 16.0547 43.0557 15.7183C42.5147 15.3818 41.8787 15.2023 41.2281 15.2023C40.3556 15.2023 39.5189 15.5248 38.902 16.099C38.2851 16.6732 37.9385 17.4519 37.9385 18.2639ZM43.6402 18.2639C43.6411 18.7081 43.5003 19.1426 43.2358 19.5123C42.9713 19.882 42.5948 20.1704 42.1542 20.3409C41.7135 20.5115 41.2283 20.5565 40.7601 20.4703C40.2919 20.3842 39.8617 20.1707 39.524 19.8569C39.1862 19.543 38.956 19.143 38.8626 18.7074C38.7692 18.2718 38.8167 17.8202 38.9991 17.4098C39.1816 16.9993 39.4907 16.6485 39.8875 16.4016C40.2843 16.1547 40.7508 16.023 41.2281 16.023C41.8663 16.024 42.4781 16.2605 42.9294 16.6805C43.3807 17.1005 43.6347 17.6699 43.6359 18.2639H43.6402Z" fill="#0B43DA" stroke="#0B43DA" stroke-width="0.1"/>
<path d="M49.5075 24.1329H0.493408C0.377052 24.1329 0.265462 24.1759 0.183186 24.2525C0.10091 24.329 0.0546875 24.4329 0.0546875 24.5412C0.0546875 24.6495 0.10091 24.7533 0.183186 24.8299C0.265462 24.9065 0.377052 24.9495 0.493408 24.9495H49.5075C49.6239 24.9495 49.7355 24.9065 49.8177 24.8299C49.9 24.7533 49.9462 24.6495 49.9462 24.5412C49.9462 24.4329 49.9 24.329 49.8177 24.2525C49.7355 24.1759 49.6239 24.1329 49.5075 24.1329Z" fill="#0B43DA" stroke="#0B43DA" stroke-width="0.1"/>
</svg>
