<svg width="42" height="27" viewBox="0 0 42 27" fill="none" xmlns="http://www.w3.org/2000/svg">
<g clip-path="url(#clip0)">
<path d="M37.597 22.776H4.40082C0.0510949 22.776 0 19.8993 0 19.8699V14.8689C0 10.969 2.08823 9.58655 2.17709 9.53008L11.8996 0.203296C12.0367 0.0729746 12.2173 0.000331102 12.405 0L29.5939 0C29.7817 0.000105501 29.9623 0.0727805 30.0993 0.203296L39.9362 9.61704C39.9573 9.61704 42 11.0107 42 14.8689V19.8699C42 19.8993 41.9489 22.776 37.597 22.776ZM12.696 1.49874L3.07458 10.7069C2.90908 10.8312 1.47287 11.8465 1.47287 14.8666V19.8677C1.47287 19.9072 1.58394 21.275 4.39971 21.275H37.5981C40.4172 21.275 40.5238 19.9072 40.5271 19.8485V14.8689C40.5271 11.8477 39.0909 10.8334 39.0309 10.7905L29.3029 1.49874H12.696Z" fill="#0B43DA"/>
<path d="M9.40136 27H4.09971C3.54891 26.9994 3.02081 26.7767 2.63123 26.3808C2.24164 25.9849 2.02237 25.448 2.02149 24.888V22.0271C2.02134 21.9286 2.04032 21.831 2.07733 21.74C2.11434 21.6489 2.16866 21.5662 2.23718 21.4965C2.3057 21.4268 2.38706 21.3716 2.47661 21.334C2.56616 21.2963 2.66213 21.277 2.75903 21.2772H10.742C10.8389 21.277 10.9349 21.2963 11.0245 21.334C11.114 21.3716 11.1954 21.4268 11.2639 21.4965C11.3324 21.5662 11.3867 21.6489 11.4237 21.74C11.4608 21.831 11.4797 21.9286 11.4796 22.0271V24.8868C11.479 25.4471 11.2599 25.9842 10.8702 26.3804C10.4806 26.7766 9.95236 26.9994 9.40136 27ZM3.49435 22.7759V24.888C3.49435 25.0509 3.55801 25.2072 3.67133 25.3224C3.78465 25.4376 3.93835 25.5024 4.0986 25.5024H9.40136C9.56143 25.5021 9.71484 25.4372 9.82792 25.322C9.941 25.2068 10.0045 25.0507 10.0045 24.888V22.7759H3.49435Z" fill="#0B43DA"/>
<path d="M37.8993 27H32.5965C32.046 26.9991 31.5183 26.7762 31.1291 26.3803C30.74 25.9844 30.5211 25.4477 30.5205 24.888V22.0271C30.5204 21.9287 30.5393 21.8312 30.5762 21.7402C30.6132 21.6492 30.6674 21.5666 30.7358 21.4969C30.8042 21.4273 30.8854 21.372 30.9749 21.3343C31.0643 21.2966 31.1601 21.2772 31.2569 21.2772H39.2411C39.3379 21.2772 39.4337 21.2966 39.5232 21.3343C39.6126 21.372 39.6938 21.4273 39.7622 21.4969C39.8306 21.5666 39.8848 21.6492 39.9218 21.7402C39.9587 21.8312 39.9777 21.9287 39.9775 22.0271V24.8868C39.9766 25.447 39.7574 25.984 39.3678 26.3801C38.9783 26.7762 38.4502 26.9991 37.8993 27ZM31.9934 22.7759V24.888C31.9932 24.9686 32.0087 25.0485 32.039 25.123C32.0692 25.1975 32.1136 25.2653 32.1696 25.3223C32.2257 25.3794 32.2922 25.4247 32.3654 25.4556C32.4387 25.4865 32.5172 25.5024 32.5965 25.5024H37.8993C38.0595 25.5024 38.2132 25.4376 38.3266 25.3224C38.4399 25.2072 38.5035 25.0509 38.5035 24.888V22.7759H31.9934Z" fill="#0B43DA"/>
<path d="M28.9359 22.7759H13.0598C12.963 22.7761 12.8671 22.7568 12.7776 22.7193C12.6882 22.6817 12.6069 22.6266 12.5384 22.557C12.4699 22.4875 12.4155 22.4049 12.3784 22.314C12.3414 22.223 12.3223 22.1256 12.3223 22.0271V19.8394C12.3223 19.741 12.3414 19.6436 12.3784 19.5526C12.4155 19.4617 12.4699 19.3791 12.5384 19.3096C12.6069 19.24 12.6882 19.1849 12.7776 19.1473C12.8671 19.1097 12.963 19.0905 13.0598 19.0906H28.9359C29.1312 19.0906 29.3185 19.1695 29.4566 19.31C29.5947 19.4504 29.6723 19.6409 29.6723 19.8394V22.0283C29.672 22.2267 29.5943 22.4168 29.4562 22.557C29.3181 22.6972 29.131 22.7759 28.9359 22.7759ZM13.7962 21.2772H28.1983V20.5871H13.7962V21.2772Z" fill="#0B43DA"/>
<path d="M24.5139 18.4627H17.4817C14.6371 18.4627 12.3223 16.6658 12.3223 14.4578C12.3221 14.3592 12.3411 14.2617 12.3781 14.1706C12.4151 14.0795 12.4694 13.9968 12.538 13.9271C12.6065 13.8575 12.6878 13.8022 12.7774 13.7646C12.8669 13.727 12.9629 13.7077 13.0598 13.7078H28.9359C29.0327 13.7078 29.1285 13.7272 29.218 13.7649C29.3074 13.8026 29.3886 13.8579 29.457 13.9275C29.5254 13.9972 29.5796 14.0799 29.6166 14.1709C29.6535 14.2618 29.6725 14.3593 29.6723 14.4578C29.6723 16.6658 27.3586 18.4627 24.5139 18.4627ZM13.9751 15.2066C14.3551 15.7888 14.8802 16.2582 15.4968 16.5669C16.1134 16.8757 16.7995 17.0126 17.4851 16.964H24.5173C25.2028 17.0121 25.8887 16.8748 26.5052 16.5661C27.1216 16.2575 27.6468 15.7884 28.0273 15.2066H13.9751Z" fill="#0B43DA"/>
<path d="M34.6831 17.2474C33.9318 17.2552 33.1887 17.0875 32.5112 16.7571C31.8337 16.4268 31.2399 15.9426 30.7755 15.3421C30.6716 15.2133 30.6129 15.053 30.6086 14.8865C30.6044 14.72 30.6549 14.5568 30.7521 14.4227C30.8443 14.2951 33.0547 11.2976 36.226 11.2976C36.8967 11.2994 37.5608 11.4325 38.182 11.6895C38.6692 11.8241 39.0902 12.1374 39.3638 12.5688C39.6374 13.0003 39.7443 13.5195 39.6638 14.0263C39.3427 15.7137 36.9702 17.2474 34.6831 17.2474ZM32.3327 14.8429C32.9738 15.4392 33.8155 15.7627 34.6842 15.7464C36.4837 15.7464 38.0676 14.5289 38.2187 13.7406C38.2387 13.6276 38.2931 13.3464 37.6333 13.0776C37.1868 12.8922 36.7094 12.796 36.2271 12.7941C34.7137 12.9269 33.3136 13.6635 32.3327 14.8429Z" fill="#0B43DA"/>
<path d="M7.31224 17.2473C5.02741 17.2473 2.65483 15.7124 2.33382 14.0273C2.25326 13.5206 2.35995 13.0016 2.63333 12.5701C2.90671 12.1387 3.32743 11.8254 3.81446 11.6905C4.43571 11.4335 5.0998 11.3004 5.7705 11.2986C8.94172 11.2986 11.151 14.2972 11.2432 14.4237C11.3402 14.5578 11.3907 14.7209 11.3867 14.8873C11.3826 15.0537 11.3244 15.214 11.221 15.3431C10.7565 15.9437 10.1624 16.4278 9.48468 16.758C8.80696 17.0881 8.06369 17.2556 7.31224 17.2473ZM5.76939 12.7974C5.28559 12.7984 4.80656 12.8947 4.35873 13.0808C3.69783 13.3496 3.75226 13.6354 3.77336 13.7438C3.92442 14.5344 5.50836 15.7497 7.30557 15.7497C8.17319 15.7653 9.01363 15.4419 9.65372 14.8461C8.67331 13.6716 7.27832 12.9359 5.76939 12.7974Z" fill="#0B43DA"/>
<path d="M33.6308 9.08056H8.53763C8.39192 9.08064 8.24946 9.03677 8.12827 8.9545C8.00709 8.87222 7.91264 8.75524 7.85686 8.61836C7.80109 8.48148 7.7865 8.33086 7.81495 8.18555C7.8434 8.04024 7.91361 7.90677 8.01669 7.80205L13.1062 2.64059C13.1745 2.57081 13.2557 2.51544 13.3451 2.47765C13.4345 2.43985 13.5303 2.42038 13.6271 2.42035H28.3836C28.5747 2.42062 28.7583 2.49634 28.8956 2.63155L34.1428 7.79414C34.2485 7.89782 34.3212 8.03123 34.3517 8.17725C34.3822 8.32326 34.3691 8.47522 34.3141 8.6136C34.2591 8.75199 34.1646 8.87049 34.0428 8.9539C33.9211 9.0373 33.7776 9.08181 33.6308 9.08169V9.08056ZM10.3193 7.58294H31.8114L28.087 3.91909H13.9326L10.3193 7.58294Z" fill="#0B43DA"/>
<path d="M37.5169 9.08055C37.3507 9.08145 37.1891 9.02513 37.0583 8.92076C36.9276 8.8164 36.8354 8.67012 36.7968 8.50572C36.7581 8.34132 36.7754 8.16847 36.8456 8.01529C36.9159 7.8621 37.035 7.73759 37.1837 7.662C39.7996 6.32815 39.8984 5.68212 39.9006 5.67534C39.082 5.21193 38.1531 4.98831 37.217 5.02931C36.8421 5.55364 36.66 6.19519 36.7028 6.84204C36.7048 7.04055 36.6294 7.2318 36.493 7.37386C36.3566 7.51592 36.1704 7.5972 35.9752 7.59988H35.9663C35.7726 7.5999 35.5867 7.52244 35.4487 7.38424C35.3107 7.24603 35.2317 7.05817 35.2288 6.86124C35.1804 5.84804 35.4744 4.8485 36.0618 4.02864C36.2108 3.87024 36.39 3.74438 36.5884 3.65874C36.7869 3.57311 37.0004 3.52949 37.2159 3.53057C37.2537 3.53057 40.9159 3.5509 41.3357 5.35346C41.6045 6.50773 40.5271 7.63263 37.8446 9.00262C37.7428 9.05405 37.6306 9.08072 37.5169 9.08055Z" fill="#0B43DA"/>
<path d="M4.39953 9.08058C4.28388 9.08123 4.16972 9.05415 4.0663 9.00152C1.38271 7.63153 0.306382 6.50662 0.575186 5.35235C0.993942 3.54527 4.655 3.52946 4.69277 3.52946C4.90844 3.52869 5.12203 3.57244 5.32059 3.65806C5.51915 3.74367 5.69856 3.86936 5.84796 4.02754C6.43631 4.847 6.73073 5.84673 6.68214 6.86013C6.67951 7.05696 6.60076 7.24482 6.46294 7.38306C6.32511 7.5213 6.1393 7.59879 5.9457 7.59877H5.93793C5.7427 7.59609 5.55649 7.51481 5.42011 7.37275C5.28372 7.23069 5.2083 7.03944 5.21038 6.84093C5.24292 6.2258 5.10064 5.61415 4.80051 5.07903C3.82666 4.9824 2.84783 5.20353 2.00584 5.71038C2.01806 5.71038 2.17246 6.35754 4.73053 7.66089C4.87922 7.73648 4.99837 7.86099 5.06863 8.01418C5.13888 8.16736 5.1561 8.34021 5.11748 8.50461C5.07887 8.66901 4.98668 8.81529 4.85593 8.91966C4.72517 9.02402 4.56353 9.08034 4.39731 9.07945L4.39953 9.08058Z" fill="#0B43DA"/>
</g>
<defs>
<clipPath id="clip0">
<rect width="42" height="27" fill="white"/>
</clipPath>
</defs>
</svg>
