<svg width="33" height="30" viewBox="0 0 33 30" fill="none" xmlns="http://www.w3.org/2000/svg">
<g clip-path="url(#clip0)">
<path d="M9.221 6.14174H2.66953C2.3813 6.13661 2.09496 6.1881 1.82763 6.29312C1.5603 6.39815 1.31745 6.55456 1.11361 6.75301C0.909764 6.95145 0.749098 7.18786 0.641215 7.44811C0.533331 7.70837 0.480444 7.98712 0.485709 8.26772" stroke="#0B43DA" stroke-width="2" stroke-linecap="round" stroke-linejoin="round"/>
<path d="M27.4196 10.3937V6.14172H20.8682" stroke="#0B43DA" stroke-width="2" stroke-linecap="round" stroke-linejoin="round"/>
<path d="M25.2359 10.3937L15.0447 0.472443L4.85352 10.3937" stroke="#0B43DA" stroke-width="2" stroke-linecap="round" stroke-linejoin="round"/>
<path d="M20.1384 10.3942L16.5958 6.92221C15.5663 7.92505 14.537 7.92505 13.5079 6.92221L9.94531 10.3909" stroke="#0B43DA" stroke-width="2" stroke-linecap="round" stroke-linejoin="round"/>
<path d="M31.0592 23.8583V29.5276H2.66951C2.38133 29.5325 2.09508 29.4809 1.82784 29.3758C1.5606 29.2707 1.31784 29.1143 1.11403 28.9159C0.91023 28.7175 0.749558 28.4811 0.641602 28.221C0.533647 27.9608 0.480621 27.6821 0.485683 27.4016V8.26773C0.480621 8.54828 0.533647 8.82694 0.641602 9.08711C0.749558 9.34727 0.91023 9.5836 1.11403 9.78201C1.31784 9.98041 1.5606 10.1368 1.82784 10.2419C2.09508 10.347 2.38133 10.3986 2.66951 10.3937H31.0592V15.3543" stroke="#0B43DA" stroke-width="2" stroke-linecap="round" stroke-linejoin="round"/>
<path d="M22.3243 16.7716C21.359 16.7716 20.4332 17.1449 19.7506 17.8094C19.068 18.4739 18.6846 19.3752 18.6846 20.3149C18.6846 21.2547 19.068 22.1559 19.7506 22.8204C20.4332 23.4849 21.359 23.8582 22.3243 23.8582H30.3316C30.9108 23.8582 31.4663 23.6343 31.8758 23.2356C32.2854 22.8369 32.5155 22.2961 32.5155 21.7323V16.063C32.5155 15.875 32.4388 15.6948 32.3022 15.5619C32.1657 15.429 31.9806 15.3543 31.7875 15.3543H31.0596C31.0303 15.7207 30.8675 16.0649 30.6005 16.3248C30.3336 16.5846 29.9801 16.7431 29.6037 16.7716H22.3243Z" stroke="#0B43DA" stroke-width="2" stroke-linecap="round" stroke-linejoin="round"/>
<path d="M21.8389 20.315H23.2948" stroke="#0B43DA" stroke-width="2" stroke-miterlimit="10"/>
</g>
<defs>
<clipPath id="clip0">
<rect width="33" height="30" fill="white"/>
</clipPath>
</defs>
</svg>
